<svg id="Component_21_1" data-name="Component 21 – 1" xmlns="http://www.w3.org/2000/svg" width="799.999" height="800" viewBox="0 0 799.999 800">
  <g id="Group_20" data-name="Group 20" transform="translate(-834 -383)">
    <rect id="Rectangle_34" data-name="Rectangle 34" width="799.999" height="800" rx="4" transform="translate(834 383)" fill="#ededed" opacity="0.801"/>
  </g>
  <path id="Exclusion_4" data-name="Exclusion 4" d="M383,303H36.771l24.457-42.808A107.884,107.884,0,0,1,36.38,243.52,109.185,109.185,0,0,1,0,161.934a110.813,110.813,0,0,1,2.191-21.953A109.035,109.035,0,0,1,47.543,71.608,106.6,106.6,0,0,1,107.834,53h0a106.565,106.565,0,0,1,60.9,19.022L61.229,260.193a106.867,106.867,0,0,0,106.9-7.932,109.018,109.018,0,0,0,45.352-68.373,110.947,110.947,0,0,0-1.157-48.991,109.079,109.079,0,0,0-43.587-62.871L209.885,0,383,303Z" transform="translate(195 248)" fill="#fff" opacity="0.331"/>
</svg>
